<svg width="57" height="57" viewBox="0 0 57 57" fill="none" xmlns="http://www.w3.org/2000/svg">
<path d="M53.5167 42.8133H4.24338C3.99005 42.8133 3.80005 42.6233 3.80005 42.4333V15.6433C3.80005 15.39 3.99005 15.2 4.24338 15.2H53.5167C53.7701 15.2 53.9601 15.39 53.9601 15.6433V42.4333C53.8967 42.6233 53.7067 42.8133 53.5167 42.8133ZM4.62338 41.99H53.0734V16.0233H4.62338V41.99Z" fill="black"/>
<path d="M45.22 40.66H12.4767C12.2234 40.66 12.0334 40.47 12.0334 40.2167C12.0334 37.3034 9.62669 34.8967 6.71335 34.8967C6.46002 34.8967 6.27002 34.7067 6.27002 34.4534V23.4967C6.27002 23.2434 6.46002 23.0534 6.71335 23.0534C9.62669 23.0534 12.0334 20.6467 12.0334 17.7334C12.0334 17.48 12.2234 17.29 12.4767 17.29H45.22C45.4734 17.29 45.6633 17.48 45.6633 17.7334C45.6633 20.6467 48.07 23.0534 50.9834 23.0534C51.2367 23.0534 51.4267 23.2434 51.4267 23.4967V34.5167C51.4267 34.77 51.2367 34.96 50.9834 34.96C48.07 34.96 45.6633 37.3667 45.6633 40.28C45.6633 40.47 45.4734 40.66 45.22 40.66ZM12.8567 39.8367H44.7767C44.9667 36.7967 47.4367 34.3267 50.54 34.0734V23.8767C47.5 23.6867 45.03 21.2167 44.7767 18.1134H12.8567C12.6667 21.1534 10.1967 23.6234 7.09335 23.8767V34.0734C10.1967 34.3267 12.6667 36.7967 12.8567 39.8367Z" fill="black"/>
<path d="M28.8801 38.8234C23.4335 38.8234 19.0635 34.39 19.0635 29.0067C19.0635 23.56 23.4968 19.1267 28.8801 19.1267C34.3268 19.1267 38.6968 23.56 38.6968 29.0067C38.6968 34.39 34.2635 38.8234 28.8801 38.8234ZM28.8801 19.95C23.8768 19.95 19.8868 24.0034 19.8868 29.0067C19.8868 34.01 23.9401 38 28.8801 38C33.8835 38 37.8735 33.9467 37.8735 29.0067C37.8735 24.0034 33.8201 19.95 28.8801 19.95Z" fill="black"/>
<path d="M26.7268 31.7301H25.9668V30.9067H26.7268V30.1467H25.9668V29.3234H26.7268V25.3967H29.2601C30.4001 25.3967 31.4768 25.9667 31.4768 27.4234C31.4768 29.5767 29.7035 30.0834 27.9301 30.0834H27.8035V30.9067H31.2868V31.7301H27.8035V33.2501H26.7901V31.7301H26.7268ZM27.7401 29.3867H28.1201C29.5135 29.3867 30.3368 28.8801 30.3368 27.5501C30.3368 26.5367 29.5768 26.2201 28.9435 26.2201H27.7401V29.3867Z" fill="black"/>
</svg>
