<svg width="17" height="17" viewBox="0 0 17 17" fill="none" xmlns="http://www.w3.org/2000/svg">
<path d="M12.9115 11.0161C12.9115 9.34156 12.9115 7.65856 12.9115 5.98406C12.9115 5.89906 12.886 5.86506 12.8095 5.83106C11.968 5.48256 11.5005 4.59856 11.696 3.69756C11.832 3.05156 12.223 2.60956 12.818 2.33756C12.886 2.30356 12.9115 2.27806 12.9115 2.20156C12.9115 1.78506 12.9115 1.37706 12.9115 0.960562C12.9115 0.586562 13.192 0.289062 13.549 0.289062C13.906 0.289062 14.178 0.578062 14.178 0.960562C14.178 1.37706 14.178 1.78506 14.178 2.20156C14.178 2.26956 14.195 2.30356 14.263 2.32906C14.9345 2.61806 15.334 3.12806 15.419 3.85056C15.504 4.57306 15.232 5.17656 14.6455 5.61856C14.5265 5.70356 14.399 5.77156 14.263 5.83106C14.195 5.86506 14.178 5.89906 14.178 5.96706C14.178 6.63856 14.178 7.30156 14.178 7.97306C14.178 10.6591 14.178 13.3366 14.178 16.0226C14.178 16.3541 13.9825 16.6091 13.6765 16.6771C13.277 16.7621 12.9115 16.4646 12.9115 16.0396C12.9115 14.9176 12.9115 13.7871 12.9115 12.6651C12.9115 12.1211 12.9115 11.5686 12.9115 11.0161ZM13.549 3.45956C13.2005 3.45956 12.9115 3.74856 12.9115 4.08856C12.9115 4.42856 13.2175 4.72606 13.549 4.72606C13.889 4.71756 14.178 4.42856 14.178 4.09706C14.178 3.74856 13.889 3.45956 13.549 3.45956Z" fill="white"/>
<path d="M4.08851 8.39791C4.08851 8.44891 4.08851 8.49141 4.08851 8.54241C4.08851 11.0414 4.08851 13.5404 4.08851 16.0394C4.08851 16.3539 3.89301 16.6089 3.61251 16.6769C3.21301 16.7789 2.83051 16.4814 2.82201 16.0649C2.82201 15.6399 2.82201 15.2064 2.82201 14.7814C2.82201 12.6904 2.82201 10.5994 2.82201 8.50841C2.82201 8.41491 2.79651 8.38091 2.71151 8.33841C2.05701 8.04091 1.66601 7.53091 1.57251 6.82541C1.47051 5.96691 1.94651 5.19341 2.72001 4.87041C2.80501 4.83641 2.82201 4.79391 2.82201 4.70891C2.82201 3.45941 2.82201 2.20991 2.82201 0.960413C2.82201 0.645913 3.01751 0.390913 3.30651 0.322913C3.71451 0.229413 4.08851 0.526913 4.08851 0.951913C4.08851 2.09941 4.08851 3.23841 4.08851 4.38591C4.08851 4.49641 4.09701 4.61541 4.08851 4.72591C4.08851 4.80241 4.10551 4.83641 4.18201 4.87041C4.75151 5.11691 5.12551 5.54191 5.28701 6.12841C5.53351 7.03791 5.05751 7.98991 4.19051 8.35541C4.15651 8.36391 4.13101 8.38091 4.08851 8.39791ZM3.46801 5.97541C3.10251 5.97541 2.83051 6.25591 2.83051 6.62141C2.83051 6.94441 3.12801 7.24191 3.45951 7.24191C3.80801 7.24191 4.10551 6.94441 4.09701 6.59591C4.08851 6.26441 3.79101 5.97541 3.46801 5.97541Z" fill="white"/>
<path d="M7.8625 11.1267C7.8625 11.0757 7.8625 11.0332 7.8625 10.9822C7.8625 7.65022 7.8625 4.30972 7.8625 0.977721C7.8625 0.654721 8.0495 0.399721 8.347 0.323221C8.738 0.229721 9.1205 0.510221 9.1375 0.918221C9.1375 0.952221 9.1375 0.986221 9.1375 1.02022C9.1375 4.32672 9.1375 7.64172 9.1375 10.9482C9.1375 11.0842 9.1715 11.1437 9.299 11.2032C9.9365 11.5092 10.3105 12.0192 10.387 12.7162C10.4805 13.5577 10.0045 14.3312 9.231 14.6627C9.163 14.6882 9.1375 14.7222 9.1375 14.7987C9.1375 15.2152 9.1375 15.6232 9.1375 16.0397C9.1375 16.4137 8.857 16.7112 8.5 16.7027C8.143 16.7027 7.871 16.4137 7.871 16.0397C7.871 15.6317 7.871 15.2322 7.871 14.8242C7.871 14.7392 7.854 14.6967 7.7605 14.6542C7.106 14.3567 6.7065 13.8552 6.6215 13.1412C6.5195 12.2912 6.9785 11.5262 7.7435 11.1862C7.786 11.1607 7.82 11.1437 7.8625 11.1267ZM8.5 12.2827C8.143 12.2912 7.854 12.5717 7.8625 12.9202C7.871 13.2602 8.16 13.5407 8.5085 13.5407C8.8485 13.5407 9.1375 13.2432 9.129 12.9117C9.129 12.5632 8.84 12.2827 8.5 12.2827Z" fill="white"/>
</svg>
