<svg width="235" height="58" viewBox="0 0 235 58" fill="none" xmlns="http://www.w3.org/2000/svg">
<g clip-path="url(#clip0_92_573)">
<path d="M219.5 30.6477H224.719C226.32 30.6477 227.536 30.3798 228.366 29.8459C229.195 29.3022 229.609 28.2598 229.609 26.7227C229.609 25.1855 229.195 24.1353 228.366 23.5994C227.536 23.0557 226.321 22.7839 224.719 22.7839H219.5V30.6477ZM214.109 37.9249V20.0909C214.109 19.7193 214.238 19.3986 214.496 19.1307C214.754 18.8627 215.068 18.7297 215.439 18.7297H226.349C232.116 18.7297 235 21.3934 235 26.7227C235 32.0519 232.116 34.7019 226.349 34.7019H219.5V37.9249C219.5 38.2964 219.367 38.6172 219.1 38.8851C218.832 39.153 218.528 39.2723 218.157 39.2723H215.468C215.097 39.2723 214.777 39.1433 214.51 38.8851C214.242 38.6172 214.109 38.2984 214.109 37.9249ZM192.288 37.8955V20.0616C192.288 19.69 192.42 19.3732 192.688 19.117C192.955 18.8608 193.274 18.7297 193.646 18.7297H210.134C210.505 18.7297 210.822 18.8627 211.077 19.1307C211.345 19.3986 211.478 19.7174 211.478 20.0909V21.4364C211.478 21.808 211.345 22.1287 211.077 22.3967C210.81 22.6646 210.505 22.7839 210.134 22.7839H197.68V26.9515H208.404C208.775 26.9515 209.092 27.0845 209.347 27.3524C209.615 27.6105 209.748 27.9254 209.748 28.297V29.6425C209.748 30.0141 209.615 30.3348 209.347 30.6028C209.09 30.8609 208.775 30.99 208.404 30.99H197.68V35.2162H210.107C210.47 35.2162 210.779 35.3453 211.036 35.6035C211.294 35.8616 211.423 36.1765 211.423 36.5481V37.9229C211.423 38.2945 211.29 38.6152 211.023 38.8832C210.755 39.1413 210.437 39.2704 210.064 39.2704H193.648C193.277 39.2704 192.957 39.1413 192.69 38.8832C192.422 38.6152 192.29 38.2867 192.29 37.8955H192.288ZM174.798 35.2162H181.862C183.463 35.2162 184.263 34.3088 184.263 32.4939C184.263 30.679 183.463 29.7579 181.862 29.7579H174.798V35.2162ZM169.408 37.8955V20.0909C169.408 19.6998 169.537 19.3751 169.794 19.117C170.052 18.8588 170.376 18.7297 170.767 18.7297H173.455C173.826 18.7297 174.142 18.8627 174.398 19.1307C174.665 19.3986 174.798 19.7174 174.798 20.0909V25.7194H181.862C184.111 25.7194 185.97 26.3159 187.438 27.5108C188.916 28.7038 189.654 30.3661 189.654 32.4959C189.654 34.6256 188.916 36.286 187.438 37.4809C185.96 38.6759 184.101 39.2723 181.862 39.2723H170.694C170.341 39.2723 170.036 39.1394 169.779 38.8714C169.531 38.5937 169.408 38.2691 169.408 37.8975V37.8955ZM139.12 37.8955V20.1183C139.12 19.7271 139.249 19.3966 139.507 19.1307C139.765 18.8647 140.079 18.7297 140.45 18.7297H146.27C146.641 18.7297 146.994 18.8627 147.328 19.1307C147.662 19.3986 147.887 19.7174 148 20.0909L152.219 32.3238L156.438 20.0909C156.553 19.7193 156.776 19.3986 157.11 19.1307C157.444 18.8627 157.797 18.7297 158.168 18.7297H163.988C164.359 18.7297 164.669 18.8627 164.917 19.1307C165.175 19.3986 165.304 19.7271 165.304 20.1183V37.8936C165.304 38.2847 165.171 38.6152 164.904 38.8812C164.636 39.1472 164.331 39.2684 163.961 39.2684H161.387C161.016 39.2684 160.696 39.1394 160.429 38.8812C160.171 38.6133 160.042 38.2847 160.042 37.8936V23.9006L154.995 37.9816C154.862 38.3356 154.628 38.6406 154.294 38.8988C153.96 39.1472 153.607 39.2704 153.236 39.2704H151.192C150.821 39.2704 150.468 39.1472 150.134 38.8988C149.81 38.6406 149.575 38.3356 149.433 37.9816L144.4 23.9006V37.8955C144.4 38.2867 144.267 38.6172 143.999 38.8832C143.732 39.1491 143.427 39.2704 143.056 39.2704H140.483C140.112 39.2704 139.792 39.1413 139.525 38.8832C139.257 38.6152 139.124 38.2867 139.124 37.8955H139.12ZM117.299 37.8955V20.0616C117.299 19.69 117.431 19.3732 117.699 19.117C117.966 18.8608 118.285 18.7297 118.658 18.7297H135.145C135.516 18.7297 135.833 18.8627 136.088 19.1307C136.356 19.3986 136.489 19.7174 136.489 20.0909V21.4364C136.489 21.808 136.356 22.1287 136.088 22.3967C135.821 22.6646 135.516 22.7839 135.145 22.7839H122.691V26.9515H133.416C133.787 26.9515 134.103 27.0845 134.359 27.3524C134.626 27.6105 134.759 27.9254 134.759 28.297V29.6425C134.759 30.0141 134.626 30.3348 134.359 30.6028C134.101 30.8609 133.787 30.99 133.416 30.99H122.691V35.2162H135.118C135.481 35.2162 135.79 35.3453 136.047 35.6035C136.305 35.8616 136.434 36.1765 136.434 36.5481V37.9229C136.434 38.2945 136.301 38.6152 136.034 38.8832C135.766 39.1413 135.448 39.2704 135.075 39.2704H118.66C118.289 39.2704 117.968 39.1413 117.701 38.8832C117.433 38.6152 117.301 38.2867 117.301 37.8955H117.299ZM99.1533 30.6477H104.372C105.973 30.6477 107.189 30.3798 108.019 29.8459C108.849 29.3022 109.263 28.2598 109.263 26.7227C109.263 25.1855 108.849 24.1353 108.019 23.5994C107.189 23.0557 105.975 22.7839 104.372 22.7839H99.1533V30.6477ZM93.7628 37.9249V20.0909C93.7628 19.7193 93.8916 19.3986 94.1493 19.1307C94.4071 18.8627 94.7214 18.7297 95.0923 18.7297H106.002C111.77 18.7297 114.653 21.3934 114.653 26.7227C114.653 32.0519 111.77 34.7019 106.002 34.7019H99.1533V37.9249C99.1533 38.2964 99.0205 38.6172 98.7531 38.8851C98.4856 39.153 98.181 39.2723 97.8101 39.2723H95.1216C94.7507 39.2723 94.4305 39.1433 94.163 38.8851C93.8955 38.6172 93.7628 38.2984 93.7628 37.9249ZM68.4229 37.9249V20.0909C68.4229 19.7193 68.5517 19.3986 68.8094 19.1307C69.0671 18.8627 69.3815 18.7297 69.7524 18.7297H88.3137C88.6846 18.7297 89.0009 18.8627 89.2567 19.1307C89.5242 19.3986 89.6569 19.7174 89.6569 20.0909V37.9249C89.6569 38.2964 89.5183 38.6172 89.243 38.8851C88.9755 39.1433 88.6573 39.2723 88.2844 39.2723H85.6253C85.2543 39.2723 84.9341 39.1433 84.6666 38.8851C84.3992 38.6172 84.2664 38.2984 84.2664 37.9249V22.7839H73.8134V37.9249C73.8134 38.2964 73.6806 38.6172 73.4131 38.8851C73.1457 39.153 72.8411 39.2723 72.4701 39.2723H69.7817C69.4108 39.2723 69.0906 39.1433 68.8231 38.8851C68.5556 38.6172 68.4229 38.2984 68.4229 37.9249Z" fill="#00357B"/>
<path d="M21.5068 11.2278C25.0667 8.46579 26.3944 4.21165 24.4723 1.72592C22.5502 -0.759807 18.1062 -0.535823 14.5463 2.2262C10.9864 4.98823 9.65874 9.24237 11.5808 11.7281C13.5029 14.2138 17.9469 13.9898 21.5068 11.2278Z" fill="#BB107C"/>
<path d="M21.6581 11.3942C25.218 8.63217 26.6747 4.54486 24.9117 2.26492C23.1487 -0.015013 18.8337 0.375799 15.2739 3.13782C11.714 5.89985 10.2573 9.98717 12.0202 12.2671C13.7832 14.547 18.0982 14.1562 21.6581 11.3942Z" fill="#FE19AA"/>
<path d="M22.5883 8.69879C24.1534 7.48445 24.7938 5.68735 24.0186 4.68487C23.2435 3.68238 21.3463 3.85412 19.7812 5.06846C18.216 6.2828 17.5757 8.07989 18.3508 9.08238C19.126 10.0849 21.0232 9.91313 22.5883 8.69879Z" fill="#FE8AD4"/>
<path d="M43.9215 11.1834C45.5681 8.50662 43.7952 4.41851 39.9616 2.05239C36.1281 -0.313725 31.6856 -0.0618486 30.039 2.61497C28.3924 5.2918 30.1653 9.37991 33.9989 11.746C37.8324 14.1121 42.2749 13.8603 43.9215 11.1834Z" fill="#4411A8"/>
<path d="M43.5741 11.7849C45.0844 9.3297 43.201 5.42124 39.3674 3.05512C35.5339 0.689001 31.2018 0.761225 29.6916 3.21644C28.1813 5.67165 30.0647 9.58011 33.8983 11.9462C37.7318 14.3123 42.0639 14.2401 43.5741 11.7849Z" fill="#753EE1"/>
<path d="M40.9983 11.799C41.6624 10.7195 40.8344 9.00101 39.1489 7.96073C37.4635 6.92046 35.5588 6.9523 34.8948 8.03186C34.2307 9.11142 35.0587 10.8299 36.7441 11.8702C38.4296 12.9104 40.3342 12.8786 40.9983 11.799Z" fill="#B99DEF"/>
<path d="M39.0852 20.7818C40.27 19.6365 39.9005 17.3276 38.26 15.6247C36.6195 13.9218 34.3291 13.4698 33.1443 14.6151C31.9595 15.7604 32.3289 18.0693 33.9695 19.7722C35.61 21.4751 37.9004 21.9271 39.0852 20.7818Z" fill="#4411A8"/>
<path d="M38.831 21.0419C39.9181 19.9911 39.4694 17.7588 37.8288 16.0559C36.1883 14.353 33.9772 13.8244 32.8901 14.8752C31.8031 15.926 32.2518 18.1583 33.8923 19.8612C35.5328 21.5641 37.744 22.0927 38.831 21.0419Z" fill="#753EE1"/>
<path d="M37.5176 20.7103C37.9956 20.2483 37.7985 19.267 37.0774 18.5185C36.3564 17.7701 35.3844 17.5379 34.9064 17.9999C34.4285 18.4619 34.6255 19.4432 35.3466 20.1916C36.0677 20.9401 37.0396 21.1723 37.5176 20.7103Z" fill="#B99DEF"/>
<path d="M39.8172 33.9253C41.4637 33.9253 42.7985 32.0069 42.7985 29.6404C42.7985 27.2739 41.4637 25.3555 39.8172 25.3555C38.1707 25.3555 36.8359 27.2739 36.8359 29.6404C36.8359 32.0069 38.1707 33.9253 39.8172 33.9253Z" fill="#C81010"/>
<path d="M39.454 33.9351C40.9647 33.9351 42.1893 32.0167 42.1893 29.6502C42.1893 27.2837 40.9647 25.3652 39.454 25.3652C37.9434 25.3652 36.7188 27.2837 36.7188 29.6502C36.7188 32.0167 37.9434 33.9351 39.454 33.9351Z" fill="#FF1616"/>
<path d="M38.7398 32.7852C39.404 32.7852 39.9424 31.942 39.9424 30.9019C39.9424 29.8617 39.404 29.0186 38.7398 29.0186C38.0756 29.0186 37.5371 29.8617 37.5371 30.9019C37.5371 31.942 38.0756 32.7852 38.7398 32.7852Z" fill="#FF8989"/>
<path d="M35.7531 41.982C37.3826 40.2685 37.7371 37.9573 36.5449 36.8197C35.3528 35.682 33.0654 36.1489 31.4359 37.8623C29.8063 39.5758 29.4518 41.8871 30.644 43.0247C31.8361 44.1623 34.1235 43.6954 35.7531 41.982Z" fill="#C6AB40"/>
<path d="M35.306 41.567C36.9355 39.8535 37.3698 37.6183 36.276 36.5746C35.1822 35.5309 32.9745 36.0738 31.345 37.7873C29.7155 39.5007 29.2812 41.7359 30.375 42.7796C31.4688 43.8234 33.6765 43.2804 35.306 41.567Z" fill="#FFDE59"/>
<path d="M32.8206 40.922C33.5368 40.1689 33.7276 39.1864 33.2467 38.7275C32.7657 38.2685 31.7953 38.507 31.079 39.2601C30.3628 40.0133 30.1721 40.9958 30.653 41.4547C31.1339 41.9136 32.1044 41.6751 32.8206 40.922Z" fill="#FFEEAB"/>
<path d="M26.7448 43.4168C27.5246 41.9642 26.47 39.878 24.3893 38.7572C22.3086 37.6364 19.9897 37.9053 19.2099 39.3579C18.43 40.8105 19.4846 42.8967 21.5653 44.0175C23.646 45.1383 25.9649 44.8694 26.7448 43.4168Z" fill="#63AB44"/>
<path d="M26.9075 43.091C27.623 41.7582 26.5163 39.7692 24.4356 38.6484C22.3549 37.5276 20.0881 37.6993 19.3727 39.0321C18.6572 40.3648 19.7639 42.3538 21.8446 43.4746C23.9253 44.5955 26.1921 44.4237 26.9075 43.091Z" fill="#7ED957"/>
<path d="M24.0328 40.7348C24.3473 40.1488 23.861 39.2744 22.9465 38.7818C22.032 38.2892 21.0356 38.3648 20.721 38.9508C20.4064 39.5368 20.8927 40.4112 21.8073 40.9038C22.7218 41.3965 23.7182 41.3208 24.0328 40.7348Z" fill="#BDEBAA"/>
<path d="M15.7528 35.8757C17.3604 35.5193 18.2498 33.3573 17.7392 31.0467C17.2287 28.7361 15.5116 27.1519 13.904 27.5083C12.2964 27.8648 11.407 30.0268 11.9176 32.3374C12.4281 34.6479 14.1452 36.2321 15.7528 35.8757Z" fill="#00357B"/>
<path d="M16.1054 35.7876C17.5803 35.4606 18.3622 33.3224 17.8516 31.0118C17.3411 28.7012 15.7315 27.0932 14.2566 27.4202C12.7816 27.7472 11.9998 29.8854 12.5103 32.196C13.0209 34.5066 14.6304 36.1146 16.1054 35.7876Z" fill="#004AAD"/>
<path d="M16.0113 32.0711C16.6598 31.9274 17.0036 30.9875 16.7792 29.972C16.5548 28.9564 15.8472 28.2497 15.1987 28.3935C14.5501 28.5373 14.2063 29.4771 14.4307 30.4926C14.6551 31.5082 15.3627 32.2149 16.0113 32.0711Z" fill="#7EA3D5"/>
<path d="M19.3541 20.862C20.2639 18.678 19.7696 16.3927 18.2501 15.7575C16.7306 15.1224 14.7612 16.3779 13.8514 18.5619C12.9416 20.7459 13.4359 23.0312 14.9555 23.6664C16.475 24.3016 18.4443 23.046 19.3541 20.862Z" fill="#C26F3B"/>
<path d="M19.4655 20.8984C20.3753 18.7144 19.9827 16.4715 18.5885 15.8888C17.1944 15.3061 15.3267 16.6041 14.4169 18.7881C13.5071 20.9721 13.8997 23.215 15.2939 23.7977C16.688 24.3804 18.5557 23.0824 19.4655 20.8984Z" fill="#FF914D"/>
<path d="M19.187 19.4271C19.5869 18.4672 19.4141 17.4813 18.8012 17.2251C18.1882 16.9689 17.3671 17.5393 16.9672 18.4992C16.5673 19.4591 16.7401 20.445 17.3531 20.7012C17.9661 20.9575 18.7871 20.387 19.187 19.4271Z" fill="#FFC7A4"/>
<path d="M29.9786 13.9789C30.0447 12.3309 28.1846 10.918 25.824 10.823C23.4635 10.728 21.4963 11.987 21.4302 13.635C21.3641 15.2829 23.2242 16.6959 25.5848 16.7909C27.9453 16.8858 29.9125 15.6269 29.9786 13.9789Z" fill="#BB107C"/>
<path d="M29.9766 14.3417C30.0372 12.8297 28.1727 11.527 25.8121 11.432C23.4515 11.337 21.4888 12.4858 21.4281 13.9978C21.3675 15.5098 23.232 16.8125 25.5926 16.9074C27.9532 17.0024 29.9159 15.8537 29.9766 14.3417Z" fill="#FE19AA"/>
<path d="M28.7967 15.0063C28.8234 14.3415 28.0039 13.7687 26.9664 13.7269C25.9288 13.6852 25.0661 14.1903 25.0395 14.8551C25.0128 15.5199 25.8323 16.0927 26.8698 16.1344C27.9074 16.1762 28.7701 15.6711 28.7967 15.0063Z" fill="#FE8AD4"/>
<path d="M35.138 26.3636C35.8842 25.8925 35.942 24.641 35.2671 23.5682C34.5921 22.4954 33.4401 22.0077 32.6939 22.4787C31.9477 22.9498 31.8899 24.2013 32.5649 25.2741C33.2398 26.3469 34.3918 26.8346 35.138 26.3636Z" fill="#4411A8"/>
<path d="M34.974 26.4707C35.6581 26.0388 35.6656 24.819 34.9907 23.7463C34.3157 22.6735 33.214 22.154 32.5298 22.5859C31.8456 23.0178 31.8382 24.2376 32.5131 25.3103C33.188 26.3831 34.2898 26.9026 34.974 26.4707Z" fill="#753EE1"/>
<path d="M34.3244 26.1546C34.6254 25.9646 34.629 25.4283 34.3324 24.9568C34.0357 24.4853 33.5512 24.2571 33.2501 24.4472C32.9491 24.6372 32.9456 25.1735 33.2422 25.645C33.5389 26.1165 34.0234 26.3447 34.3244 26.1546Z" fill="#B99DEF"/>
<path d="M35.1242 32.3557C35.4221 31.1233 34.9686 29.9557 34.1114 29.7478C33.2541 29.5399 32.3177 30.3704 32.0198 31.6028C31.7219 32.8353 32.1754 34.0029 33.0327 34.2108C33.8899 34.4187 34.8263 33.5882 35.1242 32.3557Z" fill="#C81010"/>
<path d="M34.8056 32.284C35.1035 31.0515 34.7078 29.8979 33.9218 29.7073C33.1358 29.5167 32.2572 30.3613 31.9593 31.5937C31.6614 32.8261 32.0571 33.9797 32.8431 34.1703C33.6291 34.361 34.5077 33.5164 34.8056 32.284Z" fill="#FF1616"/>
<path d="M33.4797 32.6519C33.6106 32.1102 33.4364 31.6031 33.0905 31.5192C32.7447 31.4354 32.3582 31.8065 32.2273 32.3482C32.0964 32.8899 32.2706 33.397 32.6164 33.4808C32.9623 33.5647 33.3488 33.1936 33.4797 32.6519Z" fill="#FF8989"/>
<path d="M29.0186 37.549C30.0669 36.8382 30.516 35.6689 30.0216 34.9372C29.5273 34.2055 28.2766 34.1885 27.2283 34.8993C26.1799 35.61 25.7308 36.7793 26.2252 37.511C26.7196 38.2427 27.9702 38.2597 29.0186 37.549Z" fill="#C6AB40"/>
<path d="M28.8317 37.2813C29.88 36.5706 30.3624 35.4506 29.9091 34.7797C29.4559 34.1089 28.2386 34.1412 27.1902 34.8519C26.1419 35.5626 25.6594 36.6826 26.1127 37.3535C26.566 38.0244 27.7833 37.9921 28.8317 37.2813Z" fill="#FFDE59"/>
<path d="M27.6005 36.6575C28.0613 36.3451 28.2731 35.8526 28.0737 35.5574C27.8742 35.2622 27.339 35.2762 26.8783 35.5886C26.4175 35.9009 26.2056 36.3935 26.4051 36.6887C26.6045 36.9838 27.1397 36.9699 27.6005 36.6575Z" fill="#FFEEAB"/>
<path d="M23.6004 36.1939C24.2545 35.6013 24.0964 34.3585 23.2472 33.418C22.398 32.4776 21.1794 32.1958 20.5252 32.7884C19.8711 33.3811 20.0292 34.6239 20.8784 35.5643C21.7276 36.5047 22.9462 36.7866 23.6004 36.1939Z" fill="#63AB44"/>
<path d="M23.7412 36.0581C24.3409 35.5146 24.1387 34.3118 23.2895 33.3714C22.4404 32.431 21.2658 32.1091 20.666 32.6525C20.0663 33.196 20.2685 34.3988 21.1176 35.3392C21.9668 36.2796 23.1414 36.6015 23.7412 36.0581Z" fill="#7ED957"/>
<path d="M22.7132 34.349C22.9771 34.1099 22.8885 33.581 22.5152 33.1677C22.142 32.7544 21.6255 32.6131 21.3616 32.8522C21.0977 33.0913 21.1864 33.6202 21.5596 34.0336C21.9328 34.4469 22.4493 34.5881 22.7132 34.349Z" fill="#BDEBAA"/>
<path d="M23.5112 31.6478C23.9517 31.4314 24.0579 30.7434 23.7484 30.1111C23.4389 29.4788 22.8309 29.1416 22.3904 29.358C21.9499 29.5744 21.8437 30.2623 22.1532 30.8946C22.4627 31.527 23.0707 31.8641 23.5112 31.6478Z" fill="#63AB44"/>
<path d="M23.6067 31.5988C24.0104 31.4005 24.0868 30.7272 23.7773 30.0949C23.4678 29.4626 22.8896 29.1108 22.4859 29.3091C22.0822 29.5073 22.0058 30.1807 22.3153 30.813C22.6248 31.4453 23.203 31.7971 23.6067 31.5988Z" fill="#7ED957"/>
<path d="M22.8273 29.5211C23.005 29.4331 23.2588 29.5896 23.3955 29.8673C23.5321 30.145 23.499 30.4422 23.3213 30.5283C23.1436 30.6144 22.8898 30.4598 22.7531 30.1821C22.6165 29.9044 22.6497 29.6072 22.8273 29.5211Z" fill="#BDEBAA"/>
<path d="M26.0514 23.5251C26.5987 23.0832 26.7928 22.4147 26.485 22.0321C26.1771 21.6495 25.4838 21.6976 24.9364 22.1395C24.389 22.5814 24.1949 23.2499 24.5028 23.6325C24.8107 24.0151 25.504 23.967 26.0514 23.5251Z" fill="#C26F3B"/>
<path d="M26.0735 23.5477C26.6208 23.1057 26.8358 22.4632 26.5536 22.1125C26.2715 21.7619 25.599 21.8359 25.0516 22.2778C24.5043 22.7197 24.2893 23.3623 24.5715 23.7129C24.8536 24.0636 25.5261 23.9896 26.0735 23.5477Z" fill="#FF914D"/>
<path d="M26.4198 22.4943C26.5448 22.6488 26.4491 22.9304 26.209 23.126C25.9688 23.3196 25.6721 23.3529 25.5491 23.1984C25.4241 23.0439 25.5198 22.7623 25.7599 22.5667C26.0001 22.3731 26.2968 22.3398 26.4198 22.4943Z" fill="#FFC7A4"/>
<path d="M29.9846 24.6163C30.3691 24.311 30.3268 23.6162 29.8901 23.0643C29.4534 22.5124 28.7877 22.3124 28.4032 22.6177C28.0187 22.9229 28.061 23.6178 28.4977 24.1697C28.9344 24.7216 29.6001 24.9215 29.9846 24.6163Z" fill="#BB107C"/>
<path d="M29.902 24.6866C30.2544 24.4068 30.1861 23.7327 29.7494 23.1808C29.3127 22.6289 28.673 22.4083 28.3207 22.688C27.9683 22.9678 28.0366 23.642 28.4733 24.1939C28.91 24.7458 29.5497 24.9664 29.902 24.6866Z" fill="#FE19AA"/>
<path d="M29.5223 24.5477C29.368 24.671 29.0869 24.5732 28.8936 24.3307C28.7023 24.0882 28.671 23.7909 28.8272 23.6677C28.9834 23.5445 29.2626 23.6423 29.4559 23.8848C29.6472 24.1273 29.6785 24.4245 29.5223 24.5477Z" fill="#FE8AD4"/>
<path d="M30.9283 32.1146C31.3165 31.5275 31.2997 30.8315 30.8907 30.5601C30.4816 30.2887 29.8353 30.5447 29.4471 31.1318C29.0589 31.7189 29.0757 32.4148 29.4847 32.6862C29.8938 32.9576 30.5401 32.7017 30.9283 32.1146Z" fill="#C81010"/>
<path d="M30.7763 32.0172C31.1645 31.4301 31.1753 30.7525 30.8005 30.5038C30.4256 30.2551 29.807 30.5294 29.4188 31.1165C29.0305 31.7036 29.0197 32.3812 29.3946 32.6299C29.7694 32.8786 30.388 32.6043 30.7763 32.0172Z" fill="#FF1616"/>
<path d="M29.4055 32.2239C29.2415 32.1144 29.2454 31.8172 29.4153 31.559C29.5851 31.3008 29.8585 31.1796 30.0225 31.2891C30.1865 31.3986 30.1826 31.6959 30.0127 31.9541C29.8429 32.2122 29.5695 32.3335 29.4055 32.2239Z" fill="#FF8989"/>
<path d="M26.506 33.8247C27.2089 33.8092 27.7699 33.3984 27.7592 32.907C27.7484 32.4157 27.1698 32.03 26.467 32.0454C25.7641 32.0609 25.2031 32.4718 25.2139 32.9631C25.2247 33.4544 25.8032 33.8402 26.506 33.8247Z" fill="#C6AB40"/>
<path d="M26.4979 33.643C27.2008 33.6275 27.7625 33.2499 27.7526 32.7997C27.7428 32.3494 27.165 31.9969 26.4621 32.0124C25.7592 32.0279 25.1975 32.4054 25.2074 32.8557C25.2172 33.306 25.795 33.6585 26.4979 33.643Z" fill="#FFDE59"/>
<path d="M25.5411 32.6346C25.5372 32.437 25.7832 32.2708 26.0936 32.263C26.4021 32.2571 26.6559 32.4116 26.6617 32.6091C26.6656 32.8067 26.4196 32.9729 26.1092 32.9807C25.8007 32.9866 25.5469 32.8321 25.5411 32.6346Z" fill="#FFEEAB"/>
<path d="M21.0701 27.3096C21.3661 26.0767 20.9108 24.9098 20.0532 24.7032C19.1956 24.4967 18.2605 25.3287 17.9646 26.5616C17.6686 27.7945 18.1239 28.9614 18.9815 29.1679C19.8391 29.3745 20.7742 28.5425 21.0701 27.3096Z" fill="#00357B"/>
<path d="M21.1333 27.3188C21.4292 26.0859 21.0317 24.9329 20.2454 24.7435C19.4591 24.5542 18.5818 25.4001 18.2859 26.633C17.9899 27.8659 18.3874 29.0189 19.1737 29.2083C19.96 29.3976 20.8373 28.5517 21.1333 27.3188Z" fill="#004AAD"/>
<path d="M20.4727 25.4337C20.8182 25.5178 20.9939 26.0244 20.8631 26.5661C20.7323 27.1078 20.3477 27.4794 20.0021 27.3973C19.6566 27.3151 19.4808 26.8066 19.6117 26.2649C19.7425 25.7232 20.1271 25.3516 20.4727 25.4337Z" fill="#7EA3D5"/>
<path d="M23.674 21.2992C24.2776 20.1846 24.1385 18.9395 23.3632 18.5182C22.5879 18.0969 21.4701 18.6589 20.8664 19.7735C20.2628 20.8881 20.4019 22.1332 21.1772 22.5545C21.9525 22.9758 23.0703 22.4138 23.674 21.2992Z" fill="#C26F3B"/>
<path d="M23.7316 21.3243C24.3352 20.2098 24.2483 18.9931 23.5375 18.6068C22.8267 18.2205 21.7611 18.8109 21.1574 19.9255C20.5538 21.0401 20.6407 22.2567 21.3515 22.643C22.0624 23.0293 23.128 22.4389 23.7316 21.3243Z" fill="#FF914D"/>
<path d="M23.5792 19.332C23.8916 19.5021 23.9306 20.0361 23.6651 20.5269C23.3996 21.0178 22.931 21.276 22.6186 21.1058C22.3063 20.9357 22.2672 20.4018 22.5327 19.9109C22.7983 19.42 23.2668 19.1619 23.5792 19.332Z" fill="#FFC7A4"/>
<path d="M30.7556 19.4606C30.9378 18.5961 30.0814 17.683 28.8428 17.4211C27.6042 17.1592 26.4525 17.6477 26.2703 18.5121C26.0881 19.3766 26.9445 20.2897 28.1831 20.5516C29.4217 20.8135 30.5735 20.3251 30.7556 19.4606Z" fill="#BB107C"/>
<path d="M30.7204 19.6519C30.8874 18.8593 30.0188 18.0044 28.7802 17.7425C27.5416 17.4806 26.4021 17.9108 26.2351 18.7034C26.068 19.496 26.9367 20.3509 28.1753 20.6128C29.4139 20.8747 30.5534 20.4445 30.7204 19.6519Z" fill="#FE19AA"/>
<path d="M30.0393 19.9011C29.9651 20.2492 29.4653 20.4389 28.9206 20.3235C28.3759 20.2082 27.9951 19.8327 28.0674 19.4845C28.1416 19.1364 28.6414 18.9467 29.1861 19.0621C29.7308 19.1775 30.1115 19.553 30.0393 19.9011Z" fill="#FE8AD4"/>
<path d="M11.3734 23.5252C12.5214 19.1637 10.9915 14.9783 7.9564 14.1767C4.92128 13.3751 1.53022 16.261 0.382267 20.6224C-0.765688 24.9839 0.764165 29.1693 3.79929 29.9709C6.83441 30.7725 10.2255 27.8866 11.3734 23.5252Z" fill="#C26F3B"/>
<path d="M11.5924 23.5655C12.7403 19.204 11.4142 15.0724 8.63033 14.3372C5.84648 13.6019 2.65913 16.5416 1.51117 20.9031C0.363218 25.2645 1.68937 29.3962 4.47322 30.1314C7.25707 30.8666 10.4444 27.9269 11.5924 23.5655Z" fill="#FF914D"/>
<path d="M10.6444 21.0193C11.2892 19.1444 10.8417 17.2896 9.64489 16.8766C8.44804 16.4635 6.95504 17.6486 6.31019 19.5235C5.66534 21.3984 6.11282 23.2532 7.30966 23.6662C8.50651 24.0793 9.99951 22.8942 10.6444 21.0193Z" fill="#FFC7A4"/>
<path d="M17.2312 47.323C18.8436 44.6254 17.0188 40.5603 13.1555 38.2432C9.29214 35.9262 4.85318 36.2348 3.24079 38.9324C1.62839 41.63 3.45314 45.6952 7.31647 48.0122C11.1798 50.3292 15.6188 50.0206 17.2312 47.323Z" fill="#00357B"/>
<path d="M17.5695 46.7176C19.0484 44.2434 17.1155 40.3593 13.2521 38.0423C9.38881 35.7252 5.05807 35.8528 3.57916 38.327C2.10026 40.8013 4.03322 44.6854 7.89656 47.0024C11.7599 49.3194 16.0906 49.1919 17.5695 46.7176Z" fill="#004AAD"/>
<path d="M12.1615 42.196C12.8905 41.1593 12.1694 39.3932 10.5509 38.2512C8.93238 37.1092 7.02937 37.0239 6.3004 38.0605C5.57142 39.0972 6.29252 40.8634 7.91102 42.0053C9.52952 43.1473 11.4325 43.2327 12.1615 42.196Z" fill="#7EA3D5"/>
<path d="M35.1091 52.6123C35.2296 49.4704 31.6797 46.7831 27.1801 46.6099C22.6806 46.4368 18.9353 48.8434 18.8149 51.9852C18.6944 55.1271 22.2443 57.8144 26.7438 57.9876C31.2433 58.1607 34.9886 55.7541 35.1091 52.6123Z" fill="#63AB44"/>
<path d="M35.1174 51.9187C35.2279 49.037 31.6699 46.5605 27.1704 46.3873C22.6709 46.2142 18.9337 48.4099 18.8232 51.2917C18.7126 54.1734 22.2706 56.6499 26.7702 56.823C31.2697 56.9962 35.0069 54.8004 35.1174 51.9187Z" fill="#7ED957"/>
<path d="M28.2045 50.5564C28.3467 49.2964 26.8673 48.0944 24.9001 47.8716C22.9329 47.6488 21.2229 48.4897 21.0807 49.7497C20.9385 51.0097 22.4179 52.2117 24.3851 52.4345C26.3523 52.6573 28.0623 51.8164 28.2045 50.5564Z" fill="#BDEBAA"/>
<path d="M46.6209 48.047C50.4445 45.6648 52.2003 41.5693 50.5425 38.8994C48.8848 36.2295 44.4412 35.9963 40.6176 38.3784C36.794 40.7606 35.0382 44.8561 36.696 47.526C38.3537 50.1959 42.7973 50.4292 46.6209 48.047Z" fill="#C6AB40"/>
<path d="M45.992 47.0672C49.8157 44.685 51.6827 40.7687 50.1622 38.3198C48.6417 35.871 44.3094 35.8169 40.4858 38.1991C36.6622 40.5813 34.7951 44.4976 36.3156 46.9465C37.8361 49.3953 42.1684 49.4494 45.992 47.0672Z" fill="#FFDE59"/>
<path d="M41.5557 44.7707C43.3096 43.851 44.2555 42.1947 43.6685 41.0713C43.0814 39.9479 41.1836 39.7827 39.4297 40.7024C37.6758 41.622 36.7298 43.2783 37.3169 44.4017C37.904 45.5251 39.8017 45.6903 41.5557 44.7707Z" fill="#FFEEAB"/>
<path d="M50.0303 30.0031C53.0388 29.1065 54.4366 24.8749 53.1525 20.5517C51.8683 16.2286 48.3885 13.4508 45.38 14.3475C42.3715 15.2442 40.9736 19.4757 42.2578 23.7989C43.5419 28.1221 47.0218 30.8998 50.0303 30.0031Z" fill="#C81010"/>
<path d="M49.3733 30.2174C52.1327 29.3949 53.3286 25.2236 52.0445 20.9004C50.7603 16.5772 47.4824 13.7393 44.7229 14.5617C41.9635 15.3842 40.7676 19.5555 42.0517 23.8787C43.3359 28.2019 46.6138 31.0398 49.3733 30.2174Z" fill="#FF1616"/>
<path d="M47.1821 28.5797C48.4188 28.3092 49.079 26.5193 48.6565 24.5819C48.2341 22.6445 46.8891 21.2933 45.6524 21.5638C44.4157 21.8344 43.7555 23.6243 44.1779 25.5617C44.6003 27.4991 45.9453 28.8503 47.1821 28.5797Z" fill="#FF8989"/>
</g>
<defs>
<clipPath id="clip0_92_573">
<rect width="235" height="58" fill="white"/>
</clipPath>
</defs>
</svg>
