<svg width="16" height="16" viewBox="0 0 16 16" fill="none" xmlns="http://www.w3.org/2000/svg">
<path fill-rule="evenodd" clip-rule="evenodd" d="M5.95665 2.79167C5.48088 2.44095 5.16049 2.36177 4.98858 2.39532C4.27936 2.53373 3.85895 2.80981 3.28936 3.37939C2.51188 4.15686 2.13465 4.73739 2.29895 5.61758C2.48811 6.63097 3.41228 8.17764 5.95946 10.7248C8.50646 13.2719 10.0625 14.2057 11.0815 14.3989C11.5538 14.4884 11.9134 14.4184 12.2362 14.2595C12.5812 14.0895 12.9134 13.8035 13.2944 13.4058C13.6323 13.0531 13.8374 12.807 13.9809 12.5649C14.1176 12.3341 14.2145 12.0791 14.2894 11.6959C14.3229 11.524 14.2438 11.2036 13.893 10.7278C13.5658 10.284 13.1043 9.84327 12.6776 9.48349C12.396 9.24607 11.9604 9.23096 11.6085 9.49438L10.533 10.2995C9.56289 11.0257 8.20734 10.9217 7.35145 10.0658L6.6185 9.33285C5.76262 8.47696 5.6586 7.12141 6.38481 6.15131L7.18988 5.07586C7.45332 4.72396 7.43819 4.28833 7.20076 4.00676C6.84101 3.58016 6.40034 3.11874 5.95665 2.79167ZM6.79724 1.65134C7.3706 2.07399 7.89405 2.63137 8.28376 3.0935C8.9941 3.93586 8.93615 5.10709 8.32398 5.92485L7.5189 7.00029C7.21896 7.40097 7.25772 7.9686 7.62024 8.33111L8.35319 9.06406C8.7157 9.42658 9.28333 9.46534 9.68401 9.1654L10.7595 8.36028C11.5772 7.74814 12.7484 7.69017 13.5908 8.40043C14.053 8.79016 14.6105 9.31369 15.0333 9.88713C15.4324 10.4285 15.8339 11.1782 15.6797 11.9675C15.5807 12.4744 15.4354 12.8892 15.1997 13.287C14.9708 13.6733 14.6734 14.0143 14.3173 14.3859C13.9046 14.8167 13.4341 15.2486 12.8621 15.5303C12.2678 15.823 11.5963 15.9383 10.8177 15.7908C9.33516 15.5098 7.51131 14.2802 4.95772 11.7266C2.40431 9.17315 1.18253 7.35713 0.906337 5.87753C0.605286 4.26474 1.4433 3.22198 2.28763 2.37765C2.98505 1.68024 3.64636 1.21387 4.71723 1.00488C5.5064 0.850874 6.25597 1.25234 6.79724 1.65134Z" fill="#5D5D5D"/>
</svg>
