<svg width="22" height="19" viewBox="0 0 22 19" fill="none" xmlns="http://www.w3.org/2000/svg">
<path fill-rule="evenodd" clip-rule="evenodd" d="M0 1C0 0.447715 0.447715 0 1 0C2.62481 0 4.06733 1.03971 4.58114 2.58114L4.72076 3L17.03 3C17.6859 2.99998 18.2437 2.99996 18.6951 3.04029C19.165 3.08226 19.6347 3.17512 20.064 3.43584C20.6667 3.80183 21.1211 4.36838 21.3477 5.03605C21.5091 5.51168 21.4978 5.99036 21.4369 6.45816C21.3783 6.90755 21.2573 7.45209 21.115 8.09238L20.8088 9.47037C20.664 10.1218 20.5435 10.6641 20.4106 11.1043C20.2716 11.5649 20.1006 11.9803 19.8231 12.36C19.4058 12.931 18.8446 13.3812 18.1967 13.6646C17.7658 13.8532 17.3232 13.93 16.8434 13.9658C16.3849 14 15.8295 14 15.1621 14H9.83791C9.17051 14 8.61512 14 8.15656 13.9658C7.67678 13.93 7.23421 13.8532 6.80328 13.6646C6.15536 13.3812 5.59418 12.931 5.17692 12.36C4.89941 11.9803 4.72844 11.5649 4.58939 11.1043C4.45649 10.6641 4.33602 10.1219 4.19125 9.47041L3.035 4.26729L2.68377 3.21359C2.44219 2.48885 1.76395 2 1 2C0.447715 2 0 1.55228 0 1ZM5.24662 5L6.13569 9.00084C6.29042 9.69714 6.39528 10.166 6.50404 10.5263C6.60908 10.8742 6.69899 11.0531 6.79172 11.18C7.00035 11.4655 7.28094 11.6906 7.6049 11.8323C7.74888 11.8953 7.94301 11.9443 8.30546 11.9713C8.68076 11.9994 9.16121 12 9.87449 12H15.1255C15.8388 12 16.3192 11.9994 16.6945 11.9713C17.057 11.9443 17.2511 11.8953 17.3951 11.8323C17.7191 11.6906 17.9997 11.4655 18.2083 11.18C18.301 11.0531 18.3909 10.8742 18.496 10.5263C18.6047 10.166 18.7096 9.69714 18.8643 9.00084L19.153 7.70159C19.3075 7.00651 19.408 6.54985 19.4536 6.19974C19.4982 5.858 19.4722 5.73312 19.4537 5.67868C19.3782 5.45613 19.2267 5.26728 19.0259 5.14528C18.9767 5.11544 18.8605 5.06302 18.5172 5.03235C18.1655 5.00094 17.6979 5 16.9859 5H5.24662Z" fill="white"/>
<path d="M10 17C10 18.1046 9.10457 19 8 19C6.89543 19 6 18.1046 6 17C6 15.8954 6.89543 15 8 15C9.10457 15 10 15.8954 10 17Z" fill="white"/>
<path d="M17 19C18.1046 19 19 18.1046 19 17C19 15.8954 18.1046 15 17 15C15.8954 15 15 15.8954 15 17C15 18.1046 15.8954 19 17 19Z" fill="white"/>
</svg>
