<svg width="32" height="32" viewBox="0 0 25 25" fill="none" xmlns="http://www.w3.org/2000/svg">
<path fill-rule="evenodd" clip-rule="evenodd" d="M8.10547 4.1665C4.72603 4.1665 2.08333 7.10381 2.08333 10.5789C2.08333 12.3864 2.37258 13.8748 3.45086 15.4409C4.47969 16.9352 6.19052 18.4432 8.84514 20.4327L12.5 22.9165L16.1545 20.4329C18.8093 18.4433 20.5203 16.9353 21.5491 15.4409C22.6274 13.8748 22.9167 12.3864 22.9167 10.5789C22.9167 7.10381 20.274 4.16651 16.8945 4.16651C15.1989 4.16651 13.731 4.85734 12.5 6.10737C11.269 4.85734 9.8011 4.1665 8.10547 4.1665ZM8.10547 6.24984C6.01616 6.24984 4.16667 8.10973 4.16667 10.5789C4.16667 11.1508 4.19903 11.6535 4.27971 12.1171C4.41486 12.8936 4.68556 13.5605 5.16681 14.2595C5.98471 15.4474 7.44646 16.7811 10.0954 18.7662L12.5 20.5721L14.9046 18.7662C17.5535 16.7811 19.0153 15.4474 19.8332 14.2595C20.6017 13.1432 20.8333 12.1086 20.8333 10.5789C20.8333 8.10973 18.9838 6.24984 16.8945 6.24984C15.6074 6.24984 14.4272 6.86054 13.3368 8.33141C13.1403 8.59644 12.8299 8.75272 12.5 8.75272C12.1701 8.75272 11.8597 8.59644 11.6632 8.33141C10.5728 6.86054 9.3926 6.24984 8.10547 6.24984Z" fill="#678AEF"/>
</svg>
