<svg width="32" height="32" viewBox="0 0 32 32" fill="none" xmlns="http://www.w3.org/2000/svg">
<path fill-rule="evenodd" clip-rule="evenodd" d="M10.3751 5.3335C6.0494 5.3335 2.66675 9.09325 2.66675 13.5414C2.66675 15.855 3.03699 17.7601 4.41719 19.7647C5.73409 21.6774 7.92395 23.6077 11.3219 26.1542L16.0001 29.3335L20.6779 26.1545C24.076 23.6078 26.266 21.6775 27.583 19.7648C28.9632 17.7601 29.3334 15.855 29.3334 13.5414C29.3334 9.09325 25.9508 5.3335 21.6251 5.3335C19.4547 5.3335 17.5758 6.21777 16.0001 7.8178C14.4244 6.21777 12.5455 5.3335 10.3751 5.3335ZM10.3751 8.00016C7.70076 8.00016 5.33341 10.3808 5.33341 13.5414C5.33341 14.2734 5.37484 14.9168 5.47812 15.5102C5.6511 16.5041 5.99761 17.3578 6.6136 18.2525C7.66051 19.7731 9.53156 21.4801 12.9222 24.0211L16.0001 26.3327L19.078 24.0211C22.4686 21.4801 24.3397 19.7731 25.3866 18.2525C26.3703 16.8237 26.6667 15.4994 26.6667 13.5414C26.6667 10.3808 24.2994 8.00017 21.6251 8.00017C19.9776 8.00017 18.4669 8.78186 17.0712 10.6646C16.8197 11.0038 16.4224 11.2039 16.0001 11.2039C15.5778 11.2039 15.1805 11.0038 14.929 10.6646C13.5333 8.78186 12.0226 8.00016 10.3751 8.00016Z" fill="#F0F0F0"/>
</svg>
