<svg width="29" height="29" viewBox="0 0 29 29" fill="none" xmlns="http://www.w3.org/2000/svg">
<path d="M14.8419 29C14.6191 29 14.3517 29 14.1288 29C14.0842 29 14.0842 29 14.0397 29C13.282 28.9554 12.5688 28.9108 11.8111 28.7769C10.4295 28.5092 9.13692 28.0631 7.88895 27.4385C6.4627 26.7246 5.21473 25.7877 4.10047 24.6277C2.98621 23.4677 2.09481 22.1738 1.38168 20.7462C0.490274 18.8723 0.0445703 16.9092 0 14.8569C0 14.2323 1.99245e-08 13.6077 0.0891407 12.9831C0.178281 12.2692 0.267422 11.5554 0.490274 10.8862C1.15883 8.25385 2.45137 6.02308 4.32332 4.14923C5.74957 2.76615 7.35411 1.69538 9.22606 0.981538C10.5186 0.446154 11.9003 0.133846 13.282 0.0446153C13.8168 -4.32134e-08 14.3071 0 14.8419 0C15.5996 0 16.3127 0.0892308 17.0704 0.223077C18.4967 0.490769 19.8338 0.936923 21.1263 1.60615C22.5526 2.36462 23.8451 3.30154 24.9594 4.46154C26.0291 5.57692 26.8759 6.78154 27.5445 8.16461C28.3467 9.86 28.837 11.6446 28.9707 13.5185C29.0153 14.2769 29.0153 15.0354 28.9262 15.7938C28.8816 16.5077 28.7479 17.1769 28.5696 17.8908C27.901 20.6569 26.5194 23.0662 24.4245 25.0292C22.8646 26.5462 21.0372 27.6169 18.9424 28.2862C17.6499 28.6877 16.3573 28.9554 15.0202 29C14.9756 29 14.8865 29 14.8419 29Z" fill="#D94141"/>
<path d="M8.86963 23.4232C8.9142 23.4232 8.9142 23.4232 8.95877 23.4232C9.76104 23.4232 10.5187 23.4232 11.321 23.4232C11.3656 23.4232 11.4101 23.3786 11.4101 23.3339C11.9896 22.0401 12.5244 20.7463 13.1038 19.4524C13.5049 18.5601 13.9061 17.6678 14.3072 16.7309C14.3072 16.6863 14.3518 16.6416 14.3964 16.6416C14.9758 16.6416 15.5552 16.6416 16.1346 16.6416C16.1792 16.6416 16.2237 16.6863 16.2237 16.7309C16.2237 16.7755 16.2237 16.7755 16.2237 16.8201C16.2237 18.9616 16.2237 21.1032 16.2237 23.2447C16.2237 23.3786 16.2237 23.3786 16.3574 23.3786C16.9814 23.3786 17.65 23.3786 18.274 23.3786C18.4077 23.3786 18.4077 23.3786 18.4077 23.2447C18.4077 17.3555 18.4077 11.5109 18.4077 5.62164C18.4077 5.48779 18.4077 5.48779 18.274 5.48779C17.1151 5.48779 16.0009 5.48779 14.8421 5.48779C14.3964 5.48779 13.9061 5.53241 13.4604 5.66625C12.569 5.88933 11.8113 6.29087 11.1873 6.91549C10.3405 7.76318 9.89475 8.83395 9.71647 9.99395C9.67189 10.3955 9.62733 10.7524 9.62733 11.1539C9.58275 11.8232 9.6719 12.4924 9.85018 13.1616C10.1622 14.277 10.7862 15.1693 11.6776 15.7939C11.8113 15.8832 11.945 15.9724 12.0787 16.0616C11.0536 18.5601 9.93932 20.9693 8.86963 23.4232Z" fill="white"/>
<path d="M16.1791 7.45093C16.1791 9.90477 16.1791 12.3586 16.1791 14.8125C16.1345 14.8125 16.1345 14.8125 16.09 14.8125C15.5997 14.8125 15.1094 14.8125 14.6191 14.8125C14.1734 14.8125 13.7277 14.7232 13.282 14.5002C12.7918 14.2325 12.4798 13.7863 12.2569 13.2509C12.0786 12.8494 11.9895 12.4032 11.9449 11.9571C11.9004 11.5109 11.9004 11.0202 11.9449 10.574C12.0341 9.86016 12.2123 9.14631 12.6135 8.5217C13.0146 7.98631 13.5049 7.674 14.1734 7.54016C14.3517 7.49554 14.5746 7.49554 14.7529 7.49554C15.154 7.49554 15.5997 7.49554 16.0008 7.49554C16.1345 7.45093 16.1345 7.45093 16.1791 7.45093Z" fill="#D94141"/>
</svg>
