<svg width="29" height="29" viewBox="0 0 29 29" fill="none" xmlns="http://www.w3.org/2000/svg">
<path d="M29 14.1552C29 15.9413 29 17.3702 29 18.7991C29 19.7369 29 20.6299 28.9106 21.5677C28.8213 22.55 28.6872 23.5324 28.4191 24.5148C28.2404 25.0953 28.0169 25.6311 27.7042 26.167C27.1233 27.0601 26.3636 27.7299 25.3806 28.1317C24.7103 28.3997 24.0401 28.5783 23.3251 28.7122C22.6549 28.8462 21.9399 28.8908 21.2696 28.9355C20.8675 28.9802 20.4653 28.9802 20.1079 28.9802C19.2142 29.0248 18.2758 28.9802 17.3821 28.9802C14.8351 28.9802 12.3328 28.9802 9.78582 28.9802C9.16025 28.9802 8.53467 28.9802 7.90909 28.9355C7.01541 28.8908 6.16641 28.8015 5.31741 28.6229C4.60246 28.489 3.9322 28.2657 3.26194 27.9531C2.10015 27.3726 1.29584 26.4349 0.804314 25.2293C0.53621 24.6041 0.402157 23.9343 0.268105 23.3092C0.134052 22.5947 0.0893683 21.8356 0.0446842 21.1211C6.32553e-08 20.5406 0 19.9601 0 19.4243C0 16.1199 0 12.8156 0 9.51121C0 8.93071 0.0446842 8.35021 0.0446842 7.72506C0.134052 6.65338 0.223421 5.62635 0.53621 4.59932C0.714946 4.01882 0.938367 3.43832 1.25116 2.90248C1.74268 2.05406 2.41294 1.42891 3.30663 1.02703C3.9322 0.714457 4.64715 0.491189 5.31741 0.357228C5.98767 0.223268 6.65794 0.133961 7.37288 0.0893071C8.22188 0.0446536 9.02619 0 9.87519 0C13.0924 0 16.3544 0 19.5716 0C20.1525 0 20.7334 0.0446535 21.359 0.0446535C22.3421 0.0893071 23.3251 0.223268 24.2635 0.491189C24.8891 0.669803 25.5146 0.893071 26.0955 1.2503C27.0339 1.8308 27.6595 2.63456 28.1063 3.61694C28.3744 4.24209 28.5532 4.95654 28.6872 5.62635C28.8213 6.29615 28.8659 7.01061 28.9106 7.68041C28.9553 8.12695 28.9553 8.52883 28.9553 8.97536C29 10.8062 29 12.6816 29 14.1552ZM16.131 12.0565C16.131 11.3867 16.131 10.6722 16.131 10.0024C16.131 9.86843 16.131 9.73447 16.0863 9.60051C16.0416 9.37725 15.9075 9.28794 15.6841 9.24329C15.5948 9.24329 15.5501 9.24329 15.4607 9.24329C14.3883 9.24329 13.3159 9.24329 12.2435 9.24329C12.1988 9.24329 12.1094 9.24329 12.0647 9.24329C11.7072 9.33259 11.5285 9.68982 11.7519 10.0024C11.7966 10.0917 11.886 10.181 11.9307 10.2703C12.3328 10.7169 12.5116 11.2973 12.5116 11.8778C12.5116 12.2797 12.5116 12.6816 12.5116 13.1281C12.5116 13.7533 12.5116 14.3784 12.5116 15.0036C12.5116 15.1822 12.5116 15.3162 12.4669 15.4948C12.4222 15.6734 12.3328 15.7181 12.1541 15.7181C12.02 15.7181 11.9307 15.6734 11.8413 15.6287C11.6626 15.4948 11.5285 15.3608 11.3945 15.2269C10.9476 14.7357 10.6348 14.1998 10.2773 13.664C9.60709 12.5476 9.07088 11.342 8.66872 10.0917C8.62404 9.95774 8.53467 9.77913 8.48998 9.64517C8.40062 9.46655 8.22188 9.33259 7.99846 9.28794C7.90909 9.28794 7.81972 9.24329 7.68567 9.24329C7.01541 9.24329 6.34515 9.24329 5.67488 9.24329C5.58552 9.24329 5.49615 9.24328 5.40678 9.28794C5.13867 9.33259 4.95994 9.46655 4.91525 9.77913C4.91525 9.82378 4.91525 9.86843 4.91525 9.95774C4.91525 10.181 4.95994 10.3596 5.04931 10.5382C5.27273 11.4313 5.6302 12.2797 6.03236 13.0835C6.65794 14.3784 7.37288 15.5394 8.17719 16.7004C8.66872 17.4149 9.24961 18.1293 9.91988 18.7098C11.171 19.8262 12.6009 20.5853 14.2542 20.7192C14.6564 20.7639 15.0586 20.7639 15.4607 20.7192C15.6394 20.7192 15.7735 20.6746 15.9522 20.5853C16.0863 20.496 16.1757 20.4067 16.2203 20.2281C16.2203 20.1388 16.265 20.0494 16.265 19.9601C16.265 19.335 16.265 18.6652 16.265 18.04C16.265 17.9061 16.265 17.7721 16.3097 17.6382C16.3544 17.5042 16.4438 17.4149 16.6225 17.3702C16.8459 17.3256 17.0247 17.3702 17.2034 17.4149C17.3821 17.5042 17.5609 17.5935 17.6949 17.6828C18.2311 18.04 18.678 18.4419 19.1248 18.8885C19.4823 19.2457 19.8398 19.6476 20.1972 20.0494C20.3313 20.2281 20.51 20.362 20.6888 20.5406C20.9122 20.7192 21.1356 20.8086 21.4037 20.8086C22.1186 20.8086 22.8336 20.8086 23.5485 20.8086C23.6826 20.8086 23.8166 20.8086 23.9507 20.7639C24.1741 20.6746 24.3082 20.496 24.3082 20.2727C24.3082 20.0941 24.2635 19.9155 24.1741 19.7369C24.0847 19.5136 23.9507 19.2903 23.772 19.0671C23.1464 18.2186 22.4761 17.4595 21.7612 16.7004C21.5378 16.4772 21.359 16.2985 21.1356 16.0753C21.0462 15.986 20.9122 15.852 20.8675 15.7181C20.7781 15.5394 20.7781 15.4055 20.8675 15.2269C20.9122 15.1822 20.9122 15.0929 20.9569 15.0482C21.0462 14.9143 21.1803 14.7357 21.2696 14.6017C22.0293 13.53 22.7442 12.4137 23.3698 11.2527C23.5485 10.9401 23.6826 10.6275 23.8166 10.2703C23.8613 10.0917 23.906 9.95774 23.906 9.77913C23.906 9.60051 23.8166 9.46655 23.6379 9.4219C23.5932 9.37725 23.5039 9.37725 23.4145 9.37725C23.3251 9.37725 23.1911 9.37725 23.1017 9.37725C22.4314 9.37725 21.7612 9.37725 21.0909 9.37725C20.6441 9.37725 20.2866 9.55586 20.1079 10.0024C20.1079 10.047 20.0632 10.047 20.0632 10.0917C19.527 11.2973 18.9014 12.503 18.0971 13.5747C17.829 13.9766 17.5162 14.3338 17.114 14.6464C16.98 14.7357 16.8459 14.825 16.7119 14.9143C16.4884 15.0036 16.3544 14.9143 16.265 14.691C16.2203 14.5571 16.2203 14.4677 16.2203 14.3338C16.131 13.4407 16.131 12.7709 16.131 12.0565Z" fill="white"/>
</svg>
