<svg style="display:none" fill="none" xmlns="http://www.w3.org/2000/svg">
    <symbol id="svg-human"  viewBox="0 0 16 19">
        <path fill-rule="evenodd" clip-rule="evenodd" d="M8 2C6.34315 2 5 3.34315 5 5C5 6.65685 6.34315 8 8 8C9.65685 8 11 6.65685 11 5C11 3.34315 9.65685 2 8 2ZM3 5C3 2.23858 5.23858 0 8 0C10.7614 0 13 2.23858 13 5C13 7.76142 10.7614 10 8 10C5.23858 10 3 7.76142 3 5ZM3.45609 13.7264C2.40184 14.1946 2 14.7858 2 15.5C2 15.7236 2.03976 15.8502 2.09728 15.942C2.15483 16.0338 2.29214 16.1893 2.66219 16.3567C3.45312 16.7145 5.01609 17 8 17C10.9839 17 12.5469 16.7145 13.3378 16.3567C13.7079 16.1893 13.8452 16.0338 13.9027 15.942C13.9602 15.8502 14 15.7236 14 15.5C14 14.7858 13.5982 14.1946 12.5439 13.7264C11.4614 13.2458 9.87216 13 8 13C6.12784 13 4.53857 13.2458 3.45609 13.7264ZM2.64442 11.8986C4.09544 11.2542 6.00617 11 8 11C9.99383 11 11.9046 11.2542 13.3556 11.8986C14.8348 12.5554 16 13.7142 16 15.5C16 15.9667 15.9148 16.4978 15.5973 17.0043C15.2798 17.5106 14.7921 17.8939 14.1622 18.1789C12.9531 18.7259 11.0161 19 8 19C4.98391 19 3.04688 18.7259 1.83781 18.1789C1.20786 17.8939 0.720166 17.5106 0.402722 17.0043C0.0852408 16.4978 0 15.9667 0 15.5C0 13.7142 1.16516 12.5554 2.64442 11.8986Z" />
    </symbol>
    <symbol id="svg-heart"  viewBox="0 0  20 18">
        <path fill-rule="evenodd" clip-rule="evenodd" d="M5.78125 0C2.53699 0 0 2.81981 0 6.15594C0 7.89113 0.277678 9.31997 1.31283 10.8234C2.3005 12.258 3.9429 13.7056 6.49134 15.6155L10 18L13.5084 15.6158C16.057 13.7058 17.6995 12.258 18.6872 10.8234C19.7223 9.31997 20 7.89113 20 6.15595C20 2.81982 17.463 1.90735e-06 14.2188 1.90735e-06C12.5909 1.90735e-06 11.1818 0.663206 10 1.86323C8.8182 0.663205 7.40906 0 5.78125 0ZM5.78125 2C3.77551 2 2 3.7855 2 6.15594C2 6.70492 2.03107 7.18748 2.10853 7.63253C2.23826 8.37799 2.49814 9.01825 2.96014 9.68926C3.74532 10.8297 5.14861 12.11 7.69156 14.0157L10 15.7494L12.3084 14.0157C14.8514 12.11 16.2547 10.8297 17.0399 9.68926C17.7777 8.61764 18 7.62446 18 6.15595C18 3.7855 16.2245 2 14.2188 2C12.9831 2 11.8501 2.58627 10.8033 3.99831C10.6147 4.25274 10.3167 4.40277 10 4.40277C9.68328 4.40277 9.38529 4.25274 9.19667 3.99831C8.14989 2.58627 7.01689 2 5.78125 2Z" />
    </symbol>
    <symbol id="svg-cart"  viewBox="0 0 22 19">
        <path fill-rule="evenodd" clip-rule="evenodd" d="M0 1C0 0.447715 0.447715 0 1 0C2.62481 0 4.06733 1.03971 4.58114 2.58114L4.72076 3L17.03 3C17.6859 2.99998 18.2437 2.99996 18.6951 3.04029C19.165 3.08226 19.6347 3.17512 20.064 3.43584C20.6667 3.80183 21.1211 4.36838 21.3477 5.03605C21.5091 5.51168 21.4978 5.99036 21.4369 6.45816C21.3783 6.90755 21.2573 7.45209 21.115 8.09238L20.8088 9.47037C20.664 10.1218 20.5435 10.6641 20.4106 11.1043C20.2716 11.5649 20.1006 11.9803 19.8231 12.36C19.4058 12.931 18.8446 13.3812 18.1967 13.6646C17.7658 13.8532 17.3232 13.93 16.8434 13.9658C16.3849 14 15.8295 14 15.1621 14H9.83791C9.17051 14 8.61512 14 8.15656 13.9658C7.67678 13.93 7.23421 13.8532 6.80328 13.6646C6.15536 13.3812 5.59418 12.931 5.17692 12.36C4.89941 11.9803 4.72844 11.5649 4.58939 11.1043C4.45649 10.6641 4.33602 10.1219 4.19125 9.47041L3.035 4.26729L2.68377 3.21359C2.44219 2.48885 1.76395 2 1 2C0.447715 2 0 1.55228 0 1ZM5.24662 5L6.13569 9.00084C6.29042 9.69714 6.39528 10.166 6.50404 10.5263C6.60908 10.8742 6.69899 11.0531 6.79172 11.18C7.00035 11.4655 7.28094 11.6906 7.6049 11.8323C7.74888 11.8953 7.94301 11.9443 8.30546 11.9713C8.68076 11.9994 9.16121 12 9.87449 12H15.1255C15.8388 12 16.3192 11.9994 16.6945 11.9713C17.057 11.9443 17.2511 11.8953 17.3951 11.8323C17.7191 11.6906 17.9997 11.4655 18.2083 11.18C18.301 11.0531 18.3909 10.8742 18.496 10.5263C18.6047 10.166 18.7096 9.69714 18.8643 9.00084L19.153 7.70159C19.3075 7.00651 19.408 6.54985 19.4536 6.19974C19.4982 5.858 19.4722 5.73312 19.4537 5.67868C19.3782 5.45613 19.2267 5.26728 19.0259 5.14528C18.9767 5.11544 18.8605 5.06302 18.5172 5.03235C18.1655 5.00094 17.6979 5 16.9859 5H5.24662Z" />
        <path d="M10 17C10 18.1046 9.10457 19 8 19C6.89543 19 6 18.1046 6 17C6 15.8954 6.89543 15 8 15C9.10457 15 10 15.8954 10 17Z" />
        <path d="M17 19C18.1046 19 19 18.1046 19 17C19 15.8954 18.1046 15 17 15C15.8954 15 15 15.8954 15 17C15 18.1046 15.8954 19 17 19Z" />
    </symbol>
    <symbol id="svg-search"  viewBox="0 0 18 18">
        <path fill-rule="evenodd" clip-rule="evenodd" d="M8 2C4.68629 2 2 4.68629 2 8C2 11.3137 4.68629 14 8 14C11.3137 14 14 11.3137 14 8C14 4.68629 11.3137 2 8 2ZM0 8C0 3.58172 3.58172 0 8 0C12.4183 0 16 3.58172 16 8C16 9.84871 15.3729 11.551 14.3199 12.9056L17.7071 16.2929C18.0976 16.6834 18.0976 17.3166 17.7071 17.7071C17.3166 18.0976 16.6834 18.0976 16.2929 17.7071L12.9056 14.3199C11.551 15.3729 9.84871 16 8 16C3.58172 16 0 12.4183 0 8Z" />
    </symbol>
</svg>
