<svg width="57" height="57" viewBox="0 0 57 57" fill="none" xmlns="http://www.w3.org/2000/svg">
<path d="M48.7667 42.75H8.29672C5.82672 42.75 3.80005 40.7233 3.80005 38.2533V19.38C3.80005 16.91 5.82672 14.8833 8.29672 14.8833H48.7667C51.2367 14.8833 53.2634 16.91 53.2634 19.38V38.3166C53.2634 40.7233 51.2367 42.75 48.7667 42.75ZM8.29672 15.7066C6.27005 15.7066 4.62338 17.3533 4.62338 19.38V38.3166C4.62338 40.3433 6.27005 41.99 8.29672 41.99H48.7667C50.7934 41.99 52.4401 40.3433 52.4401 38.3166V19.38C52.4401 17.3533 50.7934 15.7066 48.7667 15.7066H8.29672Z" fill="black"/>
<path d="M52.82 26.0933H4.18005C3.92672 26.0933 3.80005 25.9033 3.80005 25.7133V19.38C3.80005 19.1267 3.99005 19 4.18005 19H52.82C53.0734 19 53.2 19.19 53.2 19.38V25.7133C53.2634 25.9033 53.0734 26.0933 52.82 26.0933ZM4.62338 25.27H52.4401V19.76H4.62338V25.27Z" fill="black"/>
<path d="M40.2167 32.3H16.7833C16.53 32.3 16.4033 32.11 16.4033 31.92C16.4033 31.6667 16.5933 31.54 16.7833 31.54H40.2167C40.47 31.54 40.5967 31.73 40.5967 31.92C40.66 32.11 40.47 32.3 40.2167 32.3Z" fill="black"/>
<path d="M48.5135 38.2534H35.5301C35.2768 38.2534 35.1501 38.0634 35.1501 37.8734C35.1501 37.6201 35.3401 37.4934 35.5301 37.4934H48.5135C48.7668 37.4934 48.8935 37.6834 48.8935 37.8734C48.8935 38.0634 48.7035 38.2534 48.5135 38.2534Z" fill="black"/>
</svg>
