<svg width="57" height="57" viewBox="0 0 57 57" fill="none" xmlns="http://www.w3.org/2000/svg">
<path d="M4.75 37.6834V19.9501C4.75 17.1001 7.09333 14.8201 9.88 14.8201H47.6267C50.4767 14.8201 52.7567 17.1634 52.7567 19.9501V37.6834C52.7567 40.5334 50.4133 42.8134 47.6267 42.8134H9.88C7.09333 42.8767 4.75 40.5334 4.75 37.6834ZM51.9967 19.9501C51.9967 17.5434 50.0333 15.5801 47.6267 15.5801H9.88C7.47333 15.5801 5.51 17.5434 5.51 19.9501V37.6834C5.51 40.0901 7.47333 42.0534 9.88 42.0534H47.6267C50.0333 42.0534 51.9967 40.0901 51.9967 37.6834V19.9501Z" fill="black"/>
<path d="M46.6766 42.4967V15.2001C46.6766 15.0101 46.8666 14.8201 47.0566 14.8201C47.2466 14.8201 47.4366 15.0101 47.4366 15.2001V42.4334C47.4366 42.6234 47.2466 42.8134 47.0566 42.8134C46.8666 42.8767 46.6766 42.6867 46.6766 42.4967Z" fill="black"/>
<path d="M11.3367 42.4967V15.2001C11.3367 15.0101 11.5267 14.8201 11.7167 14.8201C11.9067 14.8201 12.0967 15.0101 12.0967 15.2001V42.4334C12.0967 42.6234 11.9067 42.8134 11.7167 42.8134C11.5267 42.8134 11.3367 42.6867 11.3367 42.4967Z" fill="black"/>
<path d="M6.83997 32.3V25.3334C6.83997 25.1434 7.02997 24.9534 7.21997 24.9534H9.62663C9.81663 24.9534 10.0066 25.1434 10.0066 25.3334V32.3C10.0066 32.49 9.81663 32.68 9.62663 32.68H7.21997C7.02997 32.7434 6.83997 32.5534 6.83997 32.3ZM7.6633 25.7767V31.92H9.24663V25.7767H7.6633Z" fill="black"/>
<path d="M49.1467 32.1733V25.5233C49.1467 25.3333 49.3367 25.1433 49.5267 25.1433C49.7167 25.1433 49.9067 25.3333 49.9067 25.5233V32.1733C49.9067 32.3633 49.7167 32.5533 49.5267 32.5533C49.3367 32.5533 49.1467 32.4266 49.1467 32.1733Z" fill="black"/>
<path d="M40.2166 35.0867H19.3166C19.1266 35.0867 18.9366 34.8967 18.9366 34.7067V23.0533C18.9366 22.8633 19.1266 22.6733 19.3166 22.6733H40.2166C40.4066 22.6733 40.5966 22.8633 40.5966 23.0533V34.7067C40.5966 34.8967 40.47 35.0867 40.2166 35.0867ZM19.76 34.2633H39.9V23.4333H19.76V34.2633Z" fill="black"/>
<path d="M24.6366 31.7301C24.2566 31.7301 23.8766 31.6668 23.6233 31.4768C23.56 31.6035 23.4333 31.6668 23.3066 31.6668H22.5466C22.3566 31.6668 22.1666 31.4768 22.1666 31.2868V24.5101C22.1666 24.3201 22.3566 24.1301 22.5466 24.1301H23.37C23.56 24.1301 23.75 24.3201 23.75 24.5101V26.0935C24.32 25.7768 25.08 25.7768 25.7133 26.0935C26.03 26.2201 26.2833 26.4735 26.5366 26.7268C26.7266 26.9801 26.9166 27.2968 26.98 27.6768C27.1066 27.9935 27.17 28.3735 27.17 28.8168C27.17 29.7668 26.9166 30.4635 26.4733 31.0335C25.9666 31.4768 25.3333 31.7301 24.6366 31.7301ZM22.9266 29.3235V30.4635C22.99 30.3368 23.0533 30.2735 23.18 30.2101C23.0533 30.0201 22.99 29.7035 22.9266 29.3235ZM24.6366 27.2968C24.3833 27.2968 24.1933 27.4235 24.0033 27.6135C23.8133 27.8668 23.6866 28.2468 23.6866 28.7535C23.6866 29.3868 23.8133 29.7035 23.8766 29.8301C24.0666 30.1468 24.32 30.2735 24.5733 30.2735C24.8266 30.2735 25.0166 30.1468 25.2066 29.9568C25.3966 29.7035 25.5233 29.3235 25.5233 28.8168C25.5233 28.3101 25.3966 27.8668 25.2066 27.6768C25.08 27.4235 24.89 27.2968 24.6366 27.2968ZM25.7133 26.9801C25.7766 27.0435 25.7766 27.0435 25.84 27.1068C26.1566 27.4868 26.2833 28.0568 26.2833 28.7535C26.2833 29.3868 26.1566 29.8301 25.9033 30.2101C26.1566 29.8301 26.3466 29.3235 26.3466 28.6901C26.3466 28.3735 26.2833 28.0568 26.22 27.8035C26.1566 27.5501 26.03 27.2968 25.9033 27.1068C25.84 27.1068 25.7766 27.0435 25.7133 26.9801ZM22.9266 24.8901V28.2468C22.99 27.8668 23.1166 27.5501 23.2433 27.2968C23.2433 27.2968 23.2433 27.2968 23.18 27.2968C22.99 27.2335 22.9266 27.1068 22.9266 26.9168V24.8901Z" fill="black"/>
<path d="M29.45 31.73C29.1333 31.73 28.7533 31.6667 28.5 31.54C28.1833 31.4133 27.93 31.2233 27.8033 30.97C27.6767 30.78 27.55 30.5267 27.4867 30.21C27.4233 30.02 27.4233 29.7033 27.4233 29.3233V26.2833C27.4233 26.0933 27.6133 25.9033 27.8033 25.9033H28.6267C28.8167 25.9033 29.0067 26.0933 29.0067 26.2833V29.0067C29.0067 29.5133 29.0067 29.7033 29.07 29.7667C29.07 29.8933 29.1333 29.9567 29.26 30.0833C29.45 30.21 29.8933 30.21 30.1467 30.0833C30.2733 30.02 30.4 29.8933 30.4633 29.7667C30.5267 29.64 30.59 29.45 30.59 28.9433V26.3467C30.59 26.1567 30.78 25.9667 30.97 25.9667H31.7933C31.9833 25.9667 32.1733 26.1567 32.1733 26.3467V31.2233C32.1733 31.4133 31.9833 31.6033 31.7933 31.6033H31.0333C30.9067 31.6033 30.7167 31.54 30.6533 31.4133C30.2733 31.6667 29.8933 31.73 29.45 31.73ZM28.1833 26.7267V29.3867C28.1833 29.83 28.1833 30.02 28.2467 30.0833C28.31 30.2733 28.3733 30.4 28.4367 30.5267C28.5 30.6533 28.6267 30.7167 28.8167 30.8433C28.88 30.8433 28.88 30.8433 28.9433 30.9067C28.88 30.9067 28.8167 30.8433 28.7533 30.78C28.5 30.59 28.3733 30.3367 28.2467 30.02C28.1833 29.83 28.1833 29.5133 28.1833 29.07V26.7267ZM31.0967 30.1467C31.2233 30.21 31.2867 30.2733 31.35 30.3367V26.7267H31.2867V28.9433C31.2867 29.3867 31.2233 29.7667 31.0967 30.02C31.0967 30.0833 31.0967 30.1467 31.0967 30.1467Z" fill="black"/>
<path d="M33.5033 33.6301C33.3133 33.6301 33.06 33.5668 32.87 33.5035C32.7433 33.4401 32.6167 33.3135 32.6167 33.1868L32.5533 32.4268C32.5533 32.3001 32.6167 32.1735 32.68 32.1101C32.8067 32.0468 32.9333 31.9835 33.06 32.0468C33.44 32.1735 33.63 32.1101 33.6933 32.0468C33.7567 31.9835 33.82 31.9835 33.82 31.9201C33.82 31.9201 33.8833 31.7935 34.01 31.3501V31.2868L32.2367 26.5368C32.1733 26.4101 32.2367 26.2835 32.3 26.1568C32.3633 26.0301 32.49 25.9668 32.6167 25.9668H33.5033C33.6933 25.9668 33.82 26.0935 33.8833 26.2201L34.8967 29.0068L35.91 26.2201C35.9733 26.0935 36.1 25.9668 36.29 25.9668H37.1133C37.24 25.9668 37.3667 26.0301 37.43 26.1568C37.4933 26.2835 37.4933 26.4101 37.4933 26.5368L35.6567 31.4768C35.4667 32.0468 35.2767 32.4268 35.15 32.6168C34.96 32.9335 34.77 33.1868 34.5167 33.3768C34.1367 33.5668 33.8833 33.6301 33.5033 33.6301ZM33.3767 32.8068C33.63 32.8701 33.82 32.8068 34.01 32.6801C33.82 32.7435 33.63 32.8068 33.3767 32.8068ZM34.58 30.6535L34.77 31.0968V31.1601L34.96 30.6535C34.8967 30.6535 34.8333 30.7168 34.77 30.7168C34.7067 30.7168 34.6433 30.7168 34.58 30.6535Z" fill="black"/>
</svg>
