<svg width="32" height="32" viewBox="0 0 32 32" fill="none" xmlns="http://www.w3.org/2000/svg">
<path fill-rule="evenodd" clip-rule="evenodd" d="M16 4C16.3537 4 16.6928 4.14048 16.9429 4.39052L22.2762 9.72386C22.7969 10.2446 22.7969 11.0888 22.2762 11.6095C21.7555 12.1302 20.9113 12.1302 20.3906 11.6095L17.3334 8.55229L17.3334 20C17.3334 20.7364 16.7364 21.3333 16 21.3333C15.2637 21.3333 14.6667 20.7364 14.6667 20L14.6667 8.55228L11.6095 11.6095C11.0888 12.1302 10.2446 12.1302 9.72391 11.6095C9.20321 11.0888 9.20321 10.2446 9.72391 9.72386L15.0572 4.39052C15.3073 4.14048 15.6464 4 16 4ZM5.33338 18.6667C6.06976 18.6667 6.66672 19.2636 6.66672 20C6.66672 21.303 6.67317 21.7598 6.74358 22.1137C7.0592 23.7005 8.29959 24.9408 9.88636 25.2565C10.2403 25.3269 10.6971 25.3333 12 25.3333H20.0001C21.303 25.3333 21.7598 25.3269 22.1137 25.2565C23.7005 24.9408 24.9409 23.7005 25.2565 22.1137C25.3269 21.7598 25.3334 21.303 25.3334 20C25.3334 19.2636 25.9303 18.6667 26.6667 18.6667C27.4031 18.6667 28 19.2636 28 20C28 20.0522 28.0001 20.1036 28.0001 20.1543C28.0003 21.2445 28.0005 21.9875 27.872 22.6339C27.3459 25.2785 25.2786 27.3459 22.634 27.8719C21.9876 28.0005 21.2445 28.0003 20.1544 28C20.1037 28 20.0523 28 20.0001 28H12C11.9478 28 11.8964 28 11.8457 28C10.7556 28.0003 10.0125 28.0005 9.36611 27.8719C6.72151 27.3459 4.65419 25.2785 4.12815 22.6339C3.99957 21.9875 3.99975 21.2445 4.00002 20.1543C4.00004 20.1037 4.00005 20.0522 4.00005 20C4.00005 19.2636 4.597 18.6667 5.33338 18.6667Z" fill="#D9D9D9"/>
</svg>
